# xmcd
#
# Track frame offsets:
# 150
# 41961
# 81701
# 135233
# 175384
# 216456
# 259189
# 302944
# 321314
#
# Disc length: 4658 seconds
#
#
# Revision: 0
# Processed by: cddbd v1.5.2PL0 Copyright (c) Steve Scherf et al.
# Submitted via: FreeRIP 2.96 
#
DISCID=8e123009
DTITLE=Terry Pratchett - Total verhext CD2
DYEAR=2008
DGENRE=Speech
TTITLE0=11 Gegen Morgengrauen ...
TTITLE1=12 Ueber Nannys Schulter hinweg ...
TTITLE2=13 Die naechste Etappe der Reise ...
TTITLE3=14 Gennua war eine im wahrsten Sinne des Wortes ...
TTITLE4=15 Magrat lag mit dem Zauberstab unter dem Kissen
TTITLE5=16 Lieber Jason und Familie
TTITLE6=17 Spaeter erinnerte sich der Wirt ...
TTITLE7=18 Die grosse, rote Scheibe der Sonne ...
TTITLE8=19 Oma betrat die Bar
EXTD=gelesen von Katharina Thalbach
EXTT0=
EXTT1=
EXTT2=
EXTT3=
EXTT4=
EXTT5=
EXTT6=
EXTT7=
EXTT8=
PLAYORDER=
